<?xml version="1.0" encoding="UTF-8"?><svg id="a" xmlns="http://www.w3.org/2000/svg" width="108" height="69" viewBox="0 0 108 69"><path d="m92.43,65.31h0c-.41,1.14-1.35,1.86-2.39,1.86H10.86c-.82,0-1.59-.45-2.08-1.22l-.06-.14h0l-1.31-3.21c5.52-.65,14.69-3.2,29.83-10.52,9.9-4.79,21.81-7.64,32.85-9.28,11.05-1.64,21.24-2.08,27.7-2.08,1.43,0,2.68.02,3.72.06l-1.21,3.28-7.88,21.27h0ZM19.12,20.55h0c.48-1.39,1.4-2.48,2.52-3.07l3.76-.85,10.59-1.74,5.17-.77c.92-.11,1.83-.16,2.74-.16,4.81,0,9.5,1.53,13.65,4.45l-14.49,2.87c-.07.01-.14.04-.2.07-.52.05-1.04.1-1.56.19l-3.55.57c-.37.06-.65.43-.66.88l-.37,12.93s-.04.02-.06.03h-.01c-.11.06-.23.12-.37.19h0c-1.34.64-2.64,1.26-3.9,1.83-3.06,1.4-5.83,2.58-8.35,3.58-6,2.37-10.56,3.68-13.98,4.36l9.06-25.34h0Zm-.82-17.76c.36-.6.95-.96,1.57-.96h6.19c2.05,0,3.99,1.02,5.35,2.83l.08.09,7.75,7.81-3.45.52h-.01l-10.62,1.75h-.04s-3.26.75-3.26.75l-3.81-10.72c-.07-.24-.11-.49-.11-.74,0-.47.12-.93.35-1.32h0Zm49,23.99c-1.2.2-2.4.4-3.61.63-3.65.7-7.35,1.55-11.02,2.58-1.3.36-2.59.75-3.87,1.16-.17.05-.33.11-.51.16l-3.77-8.48,14.94-2.96c.19.16.37.32.55.48h0l7.29,6.43h0Zm-24.38-3.61l3.85,8.65c-2.89.98-5.73,2.1-8.48,3.35l.32-11.37,2.9-.47c.47-.08.94-.13,1.41-.16h0Zm63.14,1.63c-1.58-.16-4.8-.35-9.19-.36-.43,0-.77.4-.77.91,0,.51.34.92.76.92h0c4.36.01,7.56.19,9.06.35.17.02.29.1.38.22.09.13.15.29.15.46,0,.09-.02.18-.05.28h0s-4.22,11.38-4.22,11.38c-1.16-.05-2.64-.08-4.39-.08-6.52,0-16.77.44-27.89,2.1-11.13,1.66-23.14,4.52-33.24,9.41-15.6,7.54-24.76,9.94-29.96,10.46l-5.15-12.66h0v-.04s.02-.05.02-.05l.06-.02h.02c.72.16,1.65.27,2.85.27s2.77-.12,4.66-.44c3.65-.61,8.62-1.97,15.37-4.64,2.54-1.01,5.34-2.2,8.41-3.6h0c1.26-.59,2.57-1.2,3.93-1.85h.01c.11-.06.23-.12.37-.19h0c.14-.07.28-.13.43-.2.07-.02.14-.05.2-.09,3.64-1.72,7.44-3.18,11.33-4.43,1.27-.4,2.55-.78,3.83-1.14,3.63-1.02,7.29-1.86,10.91-2.55,1.8-.35,3.58-.65,5.35-.91h0c4.22-.65,8.33-1.11,12.19-1.42.43-.03.74-.47.72-.98-.03-.5-.4-.88-.83-.85-3.75.3-7.76.75-11.87,1.38l-8.56-7.54h0c-.28-.25-.57-.49-.85-.72h0c-4.8-3.97-10.41-6.05-16.19-6.05-.86,0-1.71.05-2.57.15l-8.81-8.88C30.87,1.23,28.53,0,26.07,0h-6.19C18.74,0,17.69.64,17.04,1.73c-.43.7-.64,1.54-.64,2.38,0,.46.06.92.2,1.36l.02.05,3.79,10.66c-1.21.83-2.17,2.1-2.72,3.66h0s-9.2,25.73-9.2,25.73c-.07.19-.08.4-.03.6-1.6.25-2.91.35-3.96.35-1.12,0-1.96-.1-2.57-.24-.1-.02-.2-.04-.3-.04-.45,0-.87.22-1.15.57-.29.35-.47.82-.47,1.34,0,.28.06.57.16.83l5.37,13.22h0s0,.01,0,.02l1.79,4.38h0l.1.24s.05.1.07.14c.79,1.27,2.03,2.02,3.36,2.02h79.17c1.65,0,3.15-1.15,3.81-2.96l7.87-21.26,1.67-4.52h0l4.43-11.95h0c.13-.33.18-.68.18-1.01,0-.63-.2-1.22-.54-1.67-.33-.46-.84-.77-1.4-.83h0Z" fill="#14333f" stroke-width="0"/></svg>