<?xml version="1.0" encoding="UTF-8"?><svg id="a" xmlns="http://www.w3.org/2000/svg" width="108" height="69" viewBox="0 0 108 69"><path d="m9.05,20.32c0-.24.1-.45.26-.61.16-.16.37-.25.61-.25h23.49c.25,0,.46.1.61.25.16.16.26.37.26.61v17.38c0,.24-.1.45-.26.61-.16.16-.37.25-.61.25H9.91c-.24,0-.45-.09-.61-.25-.16-.16-.26-.37-.26-.61v-17.38h0Zm.86,20.15h23.49c1.54,0,2.78-1.24,2.78-2.77v-17.38c0-1.53-1.24-2.77-2.78-2.77H9.91c-1.53,0-2.77,1.24-2.77,2.77v17.38c0,1.53,1.24,2.77,2.77,2.77h0Z" fill="#14333f" stroke-width="0"/><path d="m14.02,52.79c.68-1.87,1.84-3.45,3.29-4.58,1.45-1.12,3.19-1.77,5.07-1.77,1.26,0,2.45.29,3.53.81,1.63.79,3.02,2.11,4,3.77.98,1.66,1.55,3.66,1.55,5.82l-.05,1.04v.06c-.42,2.43-1.56,4.57-3.16,6.11-1.6,1.53-3.65,2.45-5.91,2.45-1.27,0-2.48-.3-3.58-.83-1.65-.8-3.06-2.14-4.06-3.82-.57-.96-1-2.04-1.27-3.19-.09-.59-.14-1.19-.14-1.81,0-1.44.25-2.81.72-4.05h0Zm36.58-21.88l.11-.6.49-.7.76-.27h10.99l.53.12.6.57.23.87v26.02h-13.72v-26.02h0ZM1.25,56.63c.45.35,1,.56,1.58.56h8.17c.06.69.16,1.36.31,2.02v.04c.14.6.32,1.2.53,1.77.87,2.35,2.31,4.34,4.12,5.75,1.82,1.41,4.02,2.23,6.37,2.23,2.78,0,5.34-1.14,7.31-3.03,1.75-1.68,3.06-3.95,3.68-6.55h71.62c.81,0,1.58-.37,2.15-1.02.57-.65.89-1.54.89-2.46v-8.71c0-.69-.49-1.25-1.09-1.25s-1.1.56-1.1,1.25v8.71l-.24.7-.61.29h-22.23l.04-9.89c0-.69-.48-1.25-1.09-1.26-.6,0-1.1.56-1.1,1.25l-.04,9.9h-14.03v-26.02c0-.56-.1-1.1-.28-1.58-.27-.73-.72-1.35-1.29-1.78-.56-.44-1.25-.7-1.98-.7h-10.99c-.49,0-.96.12-1.38.32-.63.31-1.18.83-1.55,1.47-.38.65-.61,1.44-.61,2.28v26.02h-14.77v-.08c0-1.78-.31-3.48-.89-5.03-.86-2.32-2.28-4.28-4.08-5.68-1.79-1.39-3.97-2.21-6.3-2.2-1.55,0-3.03.36-4.38,1.01-2.02.98-3.74,2.62-4.95,4.68-.88,1.49-1.49,3.21-1.76,5.06H2.83l-.25-.06-.28-.27-.11-.42V7.83l.05-.29.24-.33.36-.12h11.43l.77-.37.32-.89v-2.77l.04-.21.18-.25.27-.09h19.03l.18.05.22.2.08.31v2.77l.32.89.77.37h9.97l.77-.37.32-.89v-2.77l.04-.21.18-.25.27-.09h19.03l.18.05.22.2.08.31v2.77l.32.89.78.37h2.79l.56.38h0l8.64,17.56.08.36-.04,9.12c0,.69.48,1.26,1.09,1.26.61.01,1.1-.55,1.1-1.24l.04-9.12h0c0-.57-.13-1.11-.37-1.61l-8.64-17.55c-.5-1.03-1.44-1.66-2.47-1.66h-1.7v-1.52l-.21-1.19c-.2-.55-.54-1.01-.97-1.34-.42-.33-.94-.52-1.49-.52h-19.03l-1.04.24c-.48.23-.88.62-1.17,1.11-.29.49-.46,1.08-.46,1.71v1.52h-7.78v-1.52l-.21-1.19c-.2-.55-.54-1.01-.96-1.34-.42-.33-.95-.52-1.49-.52H15.84l-1.04.24c-.48.23-.89.62-1.18,1.11-.28.49-.45,1.08-.45,1.71v1.52H2.83l-1.1.26c-.52.25-.95.66-1.25,1.18-.31.51-.49,1.15-.49,1.82v46.11l.22,1.27c.21.58.57,1.08,1.02,1.43h0Z" fill="#14333f" stroke-width="0"/></svg>