<?xml version="1.0" encoding="UTF-8"?>
<svg id="Layer_1" data-name="Layer 1" xmlns="http://www.w3.org/2000/svg" viewBox="0 0 288.12 254.99">
  <defs>
    <style>
      .cls-1 {
        fill: #d5a873;
      }
    </style>
  </defs>
  <g>
    <path class="cls-1" d="M212.42,82.35c-14.47-20.91-38.61-34.61-65.96-34.61s-51.14,13.51-65.64,34.17c.29,.06,.57,.15,.82,.26,14.37-20.33,38.04-33.61,64.82-33.61s50.8,13.47,65.13,34.04c.28-.1,.55-.18,.83-.25Z"/>
    <path class="cls-1" d="M199.26,187.13c-14.03,12.51-32.52,20.12-52.8,20.12s-38.77-7.61-52.8-20.12h-1.23c14.25,13.01,33.21,20.94,54.02,20.94s39.77-7.93,54.02-20.94h-1.23Z"/>
  </g>
  <g>
    <path class="cls-1" d="M83.05,210.08c.97,2.06,2.56,3.71,4.78,4.96,2.65,1.43,4.44,1.35,5.38-.25,.75-1.31,.31-2.6-1.32-3.85-.76-.55-1.6-1.16-2.5-1.82-1.6-1.22-2.62-2.52-3.04-3.9-.44-1.42-.3-2.78,.42-4.07,.86-1.55,2.14-2.47,3.84-2.77,1.66-.31,3.54,.11,5.64,1.25,2.49,1.45,4.34,3.27,5.55,5.48l-2.94,1.26c-1.03-1.72-2.46-3.11-4.26-4.15-.95-.53-1.85-.76-2.71-.69-.9,.06-1.59,.52-2.08,1.36-.28,.51-.31,1.1-.09,1.77,.22,.67,.79,1.37,1.7,2.09,.51,.39,1.22,.9,2.12,1.54,1.77,1.28,2.85,2.66,3.22,4.13,.37,1.45,.21,2.8-.49,4.06-1.98,3.33-5.31,3.74-9.98,1.21-3-1.67-5.13-3.9-6.39-6.71l3.14-.9Z"/>
    <path class="cls-1" d="M126.66,225.87c-.93,1.71-2.21,2.89-3.84,3.54-1.67,.63-3.48,.71-5.44,.25-1.76-.46-3.15-1.19-4.17-2.19-1.04-.98-1.73-1.99-2.05-3.03-.09-.34-.18-.66-.25-.96-.06-.31-.08-.69-.06-1.13,.03-.83,.32-2.37,.86-4.63,.55-2.29,.99-3.8,1.33-4.54,.35-.74,.75-1.3,1.21-1.7,.76-.78,1.83-1.38,3.21-1.81,1.36-.44,2.93-.46,4.7-.05,2.17,.54,3.81,1.52,4.92,2.96,1.11,1.44,1.64,3.03,1.61,4.77l-3.62-.86c-.09-.86-.43-1.66-1.03-2.4-.64-.71-1.5-1.21-2.59-1.49-.81-.17-1.53-.2-2.18-.07-.65,.13-1.21,.36-1.67,.68-.55,.32-.97,.8-1.27,1.43-.33,.67-.73,1.97-1.19,3.91-.46,1.94-.69,3.28-.69,4-.02,.72,.14,1.35,.49,1.88,.26,.49,.66,.94,1.19,1.33,.51,.44,1.16,.75,1.97,.94,1.92,.46,3.57-.1,4.95-1.67l3.62,.86Z"/>
    <path class="cls-1" d="M140.52,222.82c-.05-2.36,0-3.94,.13-4.74,.15-.8,.4-1.45,.74-1.95,.54-.94,1.42-1.8,2.65-2.55,1.2-.77,2.71-1.18,4.53-1.24,1.84-.02,3.39,.33,4.63,1.04,1.23,.71,2.13,1.52,2.69,2.44,.4,.48,.69,1.12,.85,1.92,.16,.79,.26,2.37,.31,4.72,.05,2.32,.02,3.88-.1,4.7-.13,.82-.39,1.48-.77,1.98-.52,.95-1.38,1.79-2.58,2.53-1.21,.77-2.74,1.19-4.58,1.27-1.82,0-3.35-.35-4.58-1.07-1.25-.69-2.17-1.49-2.75-2.42-.18-.3-.34-.59-.48-.87-.13-.28-.25-.64-.34-1.08-.18-.81-.29-2.38-.34-4.69Zm3.51-.08c.04,2,.16,3.35,.34,4.05,.16,.7,.48,1.27,.94,1.69,.38,.41,.88,.74,1.49,.99,.6,.29,1.32,.43,2.14,.41,.84-.02,1.56-.19,2.17-.51,.58-.27,1.04-.62,1.38-1.05,.45-.45,.75-1.02,.9-1.73,.14-.71,.19-2.06,.15-4.06s-.15-3.36-.33-4.08c-.18-.68-.51-1.24-.98-1.67-.36-.41-.83-.75-1.42-1.01-.62-.26-1.35-.38-2.19-.38-.83,.04-1.54,.2-2.12,.48-.6,.29-1.08,.65-1.44,1.08-.45,.45-.74,1.01-.87,1.71-.15,.73-.21,2.09-.17,4.09Z"/>
    <path class="cls-1" d="M169.41,210.38l8.68-2.58c1.85-.55,3.49-.57,4.91-.07,1.7,.55,2.84,1.71,3.44,3.49,.75,2.65-.15,4.87-2.69,6.66l7.71,7.09-4,1.19-7.07-6.94-4.31,1.28,2.47,8.31-3.36,1-5.79-19.43Zm5.9,7.52l5.1-1.52c1.26-.39,2.11-1,2.55-1.81,.45-.76,.55-1.57,.3-2.42-.32-1.01-.91-1.63-1.77-1.87-.69-.23-1.57-.19-2.65,.13l-5.29,1.57,1.76,5.91Z"/>
    <path class="cls-1" d="M195.91,200.56l12.43-8.05,1.57,2.43-9.48,6.14,3.15,4.87,8.1-5.24,1.48,2.29-8.1,5.24,3.25,5.01,9.48-6.14,1.57,2.43-12.43,8.05-11.02-17.02Z"/>
  </g>
  <g>
    <path class="cls-1" d="M34.46,110.28C42.93,56.04,89.85,14.53,146.47,14.53s103.54,41.5,112.01,95.75h5.13c-8.51-57.06-57.71-100.82-117.14-100.82S37.84,53.22,29.33,110.28h5.13Z"/>
    <path class="cls-1" d="M243.15,187.13c-19.94,32.48-55.78,54.15-96.69,54.15s-76.75-21.67-96.69-54.15h-5.91c20.48,35.4,58.75,59.22,102.6,59.22s82.12-23.82,102.6-59.22h-5.91Z"/>
  </g>
  <g>
    <path class="cls-1" d="M0,130.14c0-2.47,.41-4.66,1.22-6.55,.81-1.9,1.9-3.48,3.26-4.74,1.3-1.21,2.78-2.13,4.44-2.76,1.66-.63,3.33-.95,5.01-.95s3.35,.32,5.01,.95c1.66,.63,3.16,1.55,4.52,2.76,1.3,1.27,2.36,2.85,3.18,4.74,.81,1.9,1.22,4.08,1.22,6.55v3.11h-8.31v-3.11c0-2.13-.56-3.69-1.67-4.7-1.11-1.01-2.43-1.51-3.95-1.51s-2.84,.5-3.95,1.51c-1.11,1.01-1.67,2.57-1.67,4.7v32.43c0,2.13,.56,3.69,1.67,4.7,1.11,1.01,2.43,1.51,3.95,1.51s2.84-.5,3.95-1.51c1.11-1.01,1.67-2.57,1.67-4.7v-11.56h-6.6v-7.76h14.91v19.32c0,2.59-.41,4.8-1.22,6.64s-1.87,3.36-3.18,4.57c-1.36,1.27-2.87,2.21-4.52,2.85-1.66,.63-3.33,.95-5.01,.95s-3.35-.32-5.01-.95c-1.66-.63-3.14-1.58-4.44-2.85-1.36-1.21-2.44-2.73-3.26-4.57s-1.22-4.05-1.22-6.64v-32.43Z"/>
    <path class="cls-1" d="M62.09,115.65v47.61c0,2.01-.34,3.87-1.02,5.56-.68,1.7-1.64,3.21-2.89,4.53-1.25,1.32-2.69,2.36-4.32,3.1-1.63,.75-3.37,1.12-5.21,1.12s-3.57-.38-5.17-1.12c-1.6-.75-3.03-1.78-4.28-3.1-1.25-1.32-2.23-2.83-2.93-4.53-.71-1.7-1.06-3.55-1.06-5.56v-47.61h8.31v46.74c0,2.19,.49,3.79,1.47,4.83,.98,1.04,2.2,1.55,3.67,1.55s2.69-.52,3.67-1.55c.98-1.03,1.47-2.64,1.47-4.83v-46.74h8.31Z"/>
    <path class="cls-1" d="M65.19,177.05l12.96-61.4h6.93l12.96,61.4h-8.31l-2.44-13.2h-11.33l-2.44,13.2h-8.31Zm20.53-21.47l-4.07-22.25h-.16l-4.07,22.25h8.31Z"/>
    <path class="cls-1" d="M102.1,177.05v-61.4h13.36c9.78,0,14.67,6.01,14.67,18.02,0,3.62-.53,6.7-1.59,9.23-1.06,2.53-2.92,4.57-5.58,6.12l8.96,28.03h-8.8l-7.74-26.22h-4.97v26.22h-8.31Zm8.31-53.13v19.15h4.73c1.47,0,2.63-.22,3.5-.65,.87-.43,1.55-1.05,2.04-1.85,.43-.8,.73-1.8,.9-2.98,.16-1.18,.24-2.54,.24-4.1s-.08-2.92-.24-4.1c-.16-1.18-.49-2.2-.98-3.06-1.03-1.61-2.99-2.42-5.87-2.42h-4.32Z"/>
    <path class="cls-1" d="M133.06,177.05l12.96-61.4h6.93l12.96,61.4h-8.31l-2.45-13.2h-11.33l-2.44,13.2h-8.31Zm20.53-21.47l-4.07-22.25h-.16l-4.07,22.25h8.31Z"/>
    <path class="cls-1" d="M169.65,177.05v-61.4h7.99l12.55,37h.16v-37h8.31v61.4h-7.82l-12.71-36.91h-.16v36.91h-8.31Z"/>
    <path class="cls-1" d="M211.61,177.05v-53.13h-9.61v-8.28h27.54v8.28h-9.62v53.13h-8.31Z"/>
    <path class="cls-1" d="M233.2,177.05v-61.4h24.77v8.28h-16.46v18.02h14.34v8.28h-14.34v18.02h16.46v8.8h-24.77Z"/>
    <path class="cls-1" d="M263.35,177.05v-61.4h24.77v8.28h-16.46v18.02h14.34v8.28h-14.34v18.02h16.46v8.8h-24.77Z"/>
  </g>
  <g>
    <polygon class="cls-1" points="177.15 104.52 175.25 110.28 188.48 110.28 186.55 104.52 177.15 104.52"/>
    <polygon class="cls-1" points="145.29 94.22 140.1 106.59 136.97 106.59 131.78 94.22 131.71 94.22 131.71 110.28 145.37 110.28 145.37 94.22 145.29 94.22"/>
    <polygon class="cls-1" points="67.29 91.98 67.29 110.28 78.57 110.28 67.36 91.98 67.29 91.98"/>
    <polygon class="cls-1" points="181.83 89.8 178.24 101.06 185.48 101.06 181.89 89.8 181.83 89.8"/>
    <path class="cls-1" d="M99.97,104.73c.49-.55,.82-1.28,1.01-2.18,.17-.9,.26-2.61,.26-5.15s-.09-4.26-.26-5.19c-.18-.87-.52-1.59-1.01-2.14-.37-.53-.87-.97-1.5-1.33-.66-.34-1.44-.52-2.33-.55-.89,.02-1.65,.21-2.28,.55-.65,.35-1.17,.8-1.57,1.33-.49,.55-.81,1.27-.97,2.14-.18,.92-.27,2.65-.27,5.19s.09,4.25,.27,5.15c.16,.9,.48,1.62,.97,2.18,.4,.53,.92,.96,1.57,1.29,.64,.39,1.4,.58,2.28,.58s1.67-.19,2.33-.58c.62-.33,1.12-.76,1.5-1.29Z"/>
    <path class="cls-1" d="M223.09,87.99v22.29h38.82l-8.08-30.15H39.81l-8.54,30.15H63.54v-25.75h3.54l11.23,18.3h.07v-18.3h3.75v25.75h12.21c-1.16-.23-2.19-.64-3.06-1.27-1.33-.91-2.29-1.95-2.89-3.14-.18-.39-.35-.76-.49-1.11-.14-.36-.25-.82-.34-1.38-.17-1.04-.26-3.03-.26-5.97s.08-5,.26-6.02c.18-1.01,.46-1.83,.83-2.46,.6-1.18,1.56-2.24,2.89-3.17,1.3-.94,2.93-1.42,4.88-1.44,1.97,.02,3.61,.51,4.93,1.45,1.3,.93,2.24,1.99,2.82,3.18,.42,.62,.71,1.44,.87,2.45,.15,1.01,.22,3.01,.22,6s-.07,4.93-.22,5.97c-.16,1.04-.45,1.87-.87,2.49-.58,1.19-1.52,2.24-2.82,3.14-.88,.63-1.92,1.04-3.09,1.27h20.7v-25.75h3.75v25.75h5.52v-25.75h3.54l7.11,16.78,6.97-16.78h3.55v25.75h6.08v-25.75h8.99c.98,0,1.92,.09,2.83,.28,.91,.25,1.83,.75,2.76,1.52,.78,.58,1.42,1.4,1.9,2.47,.51,1.04,.76,2.26,.76,3.67,0,1.91-.65,3.64-1.94,5.21-1.33,1.65-3.27,2.5-5.82,2.54h-5.72v10.05h12.31l9.01-25.75h3.15l9.01,25.75h8.89c-1.16-.23-2.19-.64-3.06-1.27-1.33-.91-2.29-1.95-2.89-3.14-.18-.39-.35-.76-.49-1.11-.14-.36-.25-.82-.34-1.38-.17-1.04-.26-3.03-.26-5.97s.09-4.99,.26-6c.18-1.01,.46-1.83,.83-2.45,.6-1.19,1.56-2.25,2.89-3.18,1.3-.94,2.93-1.42,4.88-1.45,2.39,.02,4.34,.76,5.85,2.2,1.51,1.46,2.46,3.26,2.86,5.41h-3.99c-.31-1.04-.86-1.92-1.67-2.65-.84-.7-1.86-1.06-3.07-1.08-.89,.02-1.65,.21-2.28,.55-.65,.35-1.17,.8-1.57,1.33-.49,.55-.81,1.27-.97,2.14-.18,.92-.27,2.65-.27,5.19s.09,4.25,.27,5.15c.16,.9,.48,1.62,.97,2.18,.4,.53,.92,.96,1.57,1.29,.64,.39,1.4,.58,2.28,.58,2.11,0,3.69-1.17,4.74-3.52h3.98c-.54,2.39-1.58,4.22-3.11,5.5-1.06,.85-2.25,1.41-3.57,1.69h14.17v-22.29h-6.8v-3.46h17.35v3.46h-6.8Z"/>
    <path class="cls-1" d="M168.69,92.37c0-.86-.14-1.59-.41-2.18-.28-.53-.68-.95-1.19-1.26-.77-.51-1.67-.75-2.69-.73h-5.44v8.36h5.57c1.4-.02,2.45-.47,3.15-1.35,.67-.85,1.01-1.8,1.01-2.84Z"/>
  </g>
  <g>
    <path class="cls-1" d="M101.85,46.88c.63,1.67,.74,3.2,.33,4.6-.45,1.41-1.33,2.55-2.64,3.43-1.21,.76-2.4,1.12-3.57,1.08-1.17-.01-2.18-.25-3.03-.73-.27-.16-.52-.32-.75-.47-.23-.17-.48-.4-.76-.7-.52-.56-1.38-1.73-2.57-3.51-1.21-1.81-1.96-3.06-2.27-3.74-.3-.69-.46-1.29-.48-1.83-.11-.96,.04-2,.48-3.1,.41-1.1,1.21-2.05,2.39-2.86,1.47-.96,2.95-1.31,4.45-1.04,1.51,.27,2.82,.98,3.93,2.12l-2.43,1.62c-.61-.5-1.3-.81-2.09-.93-.79-.08-1.56,.12-2.3,.59-.53,.37-.92,.79-1.17,1.26-.25,.48-.39,.96-.42,1.44-.07,.53,.02,1.1,.27,1.69,.26,.63,.9,1.71,1.93,3.25,1.02,1.54,1.77,2.54,2.25,3.01,.46,.48,.95,.79,1.47,.92,.46,.16,.95,.21,1.48,.15,.54-.02,1.09-.21,1.63-.57,1.29-.86,1.78-2.21,1.46-4.06l2.43-1.62Z"/>
    <path class="cls-1" d="M106.93,29.53l6.71-2.29c1.43-.49,2.73-.5,3.9-.03,1.39,.51,2.39,1.58,3,3.2,.79,2.42,.25,4.44-1.64,6.05l6.67,6.51-3.09,1.06-6.15-6.36-3.33,1.14,2.59,7.58-2.6,.89-6.06-17.74Zm5.26,6.89l3.95-1.35c.97-.35,1.6-.89,1.9-1.63,.3-.69,.32-1.43,.05-2.2-.33-.92-.85-1.49-1.55-1.72-.57-.22-1.27-.18-2.1,.1l-4.09,1.4,1.84,5.39Z"/>
    <path class="cls-1" d="M133.65,22.61l11.57-.82,.19,2.67-8.83,.62,.38,5.35,7.54-.53,.18,2.51-7.54,.53,.39,5.5,8.83-.62,.19,2.67-11.57,.82-1.32-18.7Z"/>
    <path class="cls-1" d="M159.84,22.63l6.24,1.19c2.41,.48,4.02,1.86,4.84,4.14,.3,.77,.44,1.55,.41,2.33-.06,.77-.26,2.09-.62,3.95-.38,1.98-.71,3.35-1,4.1-.14,.38-.31,.72-.5,1-.2,.28-.42,.56-.68,.85-.69,.77-1.55,1.34-2.59,1.73-1.04,.43-2.22,.52-3.56,.26l-6.06-1.16,3.51-18.41Zm-.31,16.3l3.23,.62c1.52,.29,2.72-.04,3.61-.98,.38-.34,.67-.8,.86-1.4,.19-.59,.44-1.7,.75-3.35,.31-1.6,.49-2.76,.55-3.46,.03-.71-.09-1.32-.38-1.82-.55-1.21-1.51-1.94-2.89-2.16l-3.23-.62-2.51,13.16Z"/>
    <path class="cls-1" d="M186.37,29.87l2.52,1.09-7.42,17.21-2.52-1.09,7.42-17.21Z"/>
    <path class="cls-1" d="M203.06,41.65l-4.09-2.83,1.43-2.07,10.44,7.23-1.43,2.07-4.09-2.84-9.24,13.34-2.26-1.56,9.24-13.34Z"/>
  </g>
  <g>
    <path class="cls-1" d="M21.45,110.28C29.84,48.73,82.61,1.3,146.47,1.3s116.62,47.43,125.02,108.98h1.31C264.39,48.01,211.04,0,146.47,0S28.54,48.01,20.13,110.28h1.31Z"/>
    <path class="cls-1" d="M257.7,187.13c-21.28,39.62-63.11,66.56-111.23,66.56s-89.95-26.94-111.23-66.56h-1.47c21.4,40.36,63.84,67.86,112.7,67.86s91.3-27.5,112.7-67.86h-1.47Z"/>
  </g>
</svg>