<?xml version="1.0" encoding="utf-8"?>
<!-- Generator: Adobe Illustrator 28.0.0, SVG Export Plug-In . SVG Version: 6.00 Build 0)  -->
<svg version="1.1" id="a" xmlns="http://www.w3.org/2000/svg" xmlns:xlink="http://www.w3.org/1999/xlink" x="0px" y="0px"
	 viewBox="0 0 168.1 93.7" style="enable-background:new 0 0 168.1 93.7;" xml:space="preserve">
<style type="text/css">
	.st0{fill:#14333F;}
</style>
<path class="st0" d="M31.3,44.1c-0.6,1.7-0.9,3.4-0.9,5.3v28.7H18.2c0,0,0,0,0,0h-2.4l0,0l0,0H9.6c-0.7,0-1.2-0.3-1.7-0.7
	c-0.4-0.4-0.7-1-0.7-1.7V44.1H31.3L31.3,44.1z M36.9,39.3c2.6-2.6,6.2-4.2,10.1-4.2c4,0,7.5,1.6,10.1,4.2c2.6,2.6,4.2,6.2,4.2,10.1
	v28.7H32.7V49.4C32.7,45.4,34.3,41.8,36.9,39.3L36.9,39.3z M164.3,44.1v31.6c0,0.7-0.3,1.2-0.7,1.7c-0.4,0.4-1,0.7-1.7,0.7h-14.9
	c-0.3-3.3-1.7-6.2-3.9-8.4c-2.4-2.4-5.8-4-9.6-4c-3.7,0-7.1,1.5-9.6,4c-1.3,1.3-2.4,2.9-3.1,4.7c-0.7-1.8-1.7-3.4-3.1-4.7
	c-2.5-2.4-5.8-4-9.6-4c-3.7,0-7.1,1.5-9.6,4c-2.2,2.2-3.6,5.1-3.9,8.4H63.7V49.4c0-1.8-0.3-3.6-0.9-5.3H164.3L164.3,44.1z
	 M141.6,87.2c-2,2-4.9,3.3-8,3.3c-3.1,0-5.9-1.3-8-3.3c-2-2-3.3-4.8-3.3-7.9c0-3.1,1.3-5.9,3.3-8c2-2,4.9-3.3,8-3.3
	c3.1,0,5.9,1.3,8,3.3c2,2,3.3,4.8,3.3,8C144.9,82.3,143.6,85.2,141.6,87.2L141.6,87.2z M116.2,87.2c-2,2-4.9,3.3-8,3.3
	c-3.1,0-5.9-1.3-8-3.3c-2-2-3.2-4.7-3.3-7.7c0-0.1,0-0.2,0-0.3s0-0.2,0-0.3c0.1-3,1.3-5.7,3.3-7.7c2-2,4.9-3.3,8-3.3
	c3.1,0,5.9,1.3,8,3.3c2,2,3.3,4.8,3.3,8C119.5,82.3,118.3,85.2,116.2,87.2L116.2,87.2z M9.6,80.4h5v9.9c0,0.6,0.5,1.1,1.1,1.1
	s1.1-0.5,1.1-1.1v-9.9h0.4h0h14.2l0,0h31l0,0h32.2c0.3,3.3,1.7,6.2,3.9,8.4c2.4,2.4,5.8,4,9.6,4c3.7,0,7.1-1.5,9.6-4
	c1.3-1.3,2.4-2.9,3.1-4.7c0.7,1.8,1.7,3.4,3.1,4.7c2.5,2.4,5.9,4,9.6,4c3.7,0,7.1-1.5,9.6-4c2.2-2.2,3.6-5.1,3.9-8.4H162
	c1.3,0,2.5-0.5,3.3-1.4c0.8-0.8,1.4-2,1.4-3.3V43.3c0-0.1,0-0.1,0-0.2c0-0.1,0-0.1,0-0.2v-9.6c0-9.2-3.7-17.6-9.8-23.6
	c-6-6-14.4-9.8-23.7-9.8H61c-0.6,0-1.1,0.5-1.1,1.1c0,0.6,0.5,1.1,1.1,1.1l0,0h72.2c8.6,0,16.4,3.5,22,9.1c5.6,5.6,9.1,13.4,9.1,22
	v8.4H61.9c-0.8-1.5-1.8-3-3-4.2c-3-3-7.2-4.9-11.8-4.9c-4.6,0-8.8,1.9-11.8,4.9c-1.2,1.2-2.3,2.7-3.1,4.3c-0.2-0.1-0.3-0.1-0.5-0.1
	l0,0H7.2v-8.4c0-8.6,3.5-16.4,9.1-22c5.6-5.6,13.4-9.1,22-9.1h4.2c0.6,0,1.1-0.5,1.1-1.1c0-0.6-0.5-1.1-1.1-1.1h-4.2
	c-9.2,0-17.6,3.7-23.7,9.8c-6.1,6-9.8,14.4-9.8,23.6v9.6c0,0.2,0.1,0.4,0.1,0.5C5,43.6,4.9,43.8,4.9,44l0,0v31.7
	c0,1.3,0.5,2.5,1.4,3.3C7.1,79.9,8.3,80.4,9.6,80.4L9.6,80.4z"/>
<path class="st0" d="M114.7,26.6v-4.8c0-0.6,0.3-1.2,0.7-1.6c0.4-0.4,1-0.7,1.6-0.7h17.5c0.6,0,1.2,0.3,1.6,0.7
	c0.4,0.4,0.7,1,0.7,1.6v4.8c0,0.6-0.3,1.2-0.7,1.6c-0.4,0.4-1,0.7-1.6,0.7H117c-0.6,0-1.2-0.3-1.6-0.7
	C115,27.8,114.7,27.2,114.7,26.6L114.7,26.6z M134.5,31.2c1.3,0,2.4-0.5,3.3-1.3c0.8-0.8,1.4-2,1.4-3.3v-4.8c0-1.3-0.5-2.4-1.4-3.3
	c-0.8-0.8-2-1.3-3.3-1.3H117c-1.3,0-2.4,0.5-3.3,1.3c-0.8,0.8-1.3,2-1.3,3.3v4.8c0,1.3,0.5,2.4,1.3,3.3c0.8,0.8,2,1.3,3.3,1.3H134.5
	L134.5,31.2z"/>
<path class="st0" d="M81.2,26.6v-4.8c0-0.6,0.3-1.2,0.7-1.6c0.4-0.4,1-0.7,1.6-0.7H101c0.6,0,1.2,0.3,1.6,0.7c0.4,0.4,0.7,1,0.7,1.6
	v4.8c0,0.6-0.3,1.2-0.7,1.6c-0.4,0.4-1,0.7-1.6,0.7H83.5c-0.6,0-1.2-0.3-1.6-0.7C81.4,27.8,81.2,27.2,81.2,26.6L81.2,26.6z
	 M101,31.2c1.3,0,2.4-0.5,3.3-1.3c0.8-0.8,1.4-2,1.4-3.3v-4.8c0-1.3-0.5-2.4-1.4-3.3c-0.8-0.8-2-1.3-3.3-1.3H83.5
	c-1.3,0-2.4,0.5-3.3,1.3c-0.8,0.8-1.4,2-1.4,3.3v4.8c0,1.3,0.5,2.4,1.4,3.3c0.8,0.8,2,1.3,3.3,1.3H101L101,31.2z"/>
<path class="st0" d="M37.4,63.7c1.4,0,2.5-1.1,2.5-2.5c0-1.4-1.1-2.5-2.5-2.5c-1.4,0-2.5,1.1-2.5,2.5C34.9,62.6,36,63.7,37.4,63.7
	L37.4,63.7z"/>
</svg>
