<?xml version="1.0" encoding="UTF-8"?><svg id="a" xmlns="http://www.w3.org/2000/svg" width="108" height="68.86" viewBox="0 0 108 68.86"><path d="m53.24,43.8h-9.51v-22.87c0-.52.2-.97.54-1.31.34-.34.79-.55,1.31-.55h5.8c.52,0,.97.21,1.31.55.34.34.54.8.54,1.31v22.87h0ZM5.25,15.4c2.07-2.08,4.92-3.37,8.08-3.37h67.43c.71,0,1.34.29,1.81.75.46.47.75,1.11.75,1.82l-.03,8.26c-.27-.02-.54-.03-.81-.03h-13.37c-.92,0-1.77.38-2.37.99-.6.61-.98,1.45-.98,2.38h0l.03,17.61h-10.65v-22.88c0-1.04-.42-1.99-1.1-2.67-.68-.68-1.62-1.11-2.66-1.1h-5.8c-1.03,0-1.98.42-2.65,1.1-.68.68-1.1,1.63-1.1,2.67v22.85l-39.93-.05v-20.23c0-3.16,1.28-6.03,3.35-8.11h0ZM26.62,5.48c0-.99.4-1.87,1.04-2.52.64-.65,1.53-1.05,2.51-1.05h25.22c.98,0,1.87.4,2.51,1.05.64.65,1.04,1.53,1.04,2.52v4.65H26.62v-4.65h0Zm62.4,21.63l14.08,11.63c.47.39.89.85,1.25,1.34h-36.69v-13.88c0-.4.14-.76.41-1.03.26-.26.62-.43,1.02-.43h13.37c2.38,0,4.71.84,6.55,2.36h0Zm-21.35,14.88h37.48c.09,0,.18-.02.26-.04.32.77.55,1.6.68,2.45l-.35-.54-38.05-.05-.02-1.82h0Zm25.85,22.25c-1.66,1.67-3.96,2.7-6.5,2.7s-4.83-1.03-6.5-2.7c-1.66-1.67-2.69-3.98-2.69-6.53s1.03-4.86,2.69-6.53c1.67-1.67,3.96-2.7,6.5-2.7s4.83,1.03,6.5,2.7c1.67,1.67,2.69,3.97,2.69,6.53s-1.03,4.86-2.69,6.53h0ZM14.1,51.19c1.67-1.67,3.96-2.7,6.5-2.7s4.83,1.03,6.5,2.7c1.66,1.67,2.69,3.97,2.69,6.53s-1.03,4.86-2.69,6.53c-1.67,1.67-3.96,2.7-6.5,2.7s-4.83-1.03-6.5-2.7c-1.67-1.67-2.69-3.98-2.69-6.53s1.03-4.86,2.69-6.53h0Zm93.89-7.01c-.2-1.32-.6-2.6-1.2-3.78-.61-1.18-1.43-2.25-2.48-3.12l-14.07-11.63c-1.47-1.22-3.21-2.07-5.05-2.49l.03-8.54h0c0-1.24-.5-2.36-1.3-3.17-.81-.81-1.93-1.31-3.16-1.31h-19.91v-4.65C60.84,2.45,58.4,0,55.39,0h-25.22c-3.01,0-5.45,2.45-5.45,5.48v4.65h-11.39c-3.68,0-7.01,1.51-9.42,3.93C1.49,16.47,0,19.82,0,23.51v29.27c0,1.23.49,2.36,1.29,3.17.79.82,1.9,1.34,3.12,1.37h.02s4.89,0,4.89,0c.07,0,.13,0,.2-.02,0,.13,0,.27,0,.4,0,6.16,4.96,11.14,11.09,11.14s11.09-4.99,11.09-11.14c0-.1,0-.21,0-.31.14.08.29.12.46.12l14.45-.12c.52,0,.95-.44.94-.96,0-.53-.43-.95-.96-.95l-14.45.13c-.23,0-.43.09-.59.22-.89-5.26-5.44-9.27-10.94-9.27s-9.86,3.84-10.88,8.94c-.12-.06-.26-.09-.4-.09h-4.86c-.71-.02-1.34-.32-1.81-.8-.46-.48-.74-1.12-.74-1.84v-7.14l40.51.05c.11.05.24.07.36.07.13,0,.25-.02.37-.07h10.72c.1.05.21.07.33.07s.22-.02.32-.06h11.95c.09.04.18.06.28.06s.18-.02.27-.04l38.71.04v7.02c0,.72-.28,1.36-.75,1.84-.46.47-1.1.77-1.81.79h-4.86c-.14,0-.28.04-.4.1-1.02-5.1-5.5-8.94-10.88-8.94s-9.85,3.84-10.87,8.93c-.17-.17-.41-.27-.67-.27l-13.69.12c-.52,0-.94.44-.94.96,0,.53.43.95.96.95l13.7-.12c.16,0,.32-.05.46-.13-.01.23-.02.46-.02.7,0,6.16,4.96,11.14,11.09,11.14s11.09-4.99,11.09-11.14c0-.14,0-.27-.01-.41.06.01.13.02.2.02h4.91c1.22-.03,2.32-.55,3.12-1.37.79-.82,1.29-1.94,1.28-3.17v-7.71s0-.09-.01-.13c0-.04.01-.07.01-.11h0l.38-.5c0-.06,0-.11-.01-.17h0Z" fill="#14333f" stroke-width="0"/><path d="m31.49,28.74l-.05.34-.29.4-.43.16H13.98l-.3-.07-.34-.33-.13-.49v-8.85l.05-.35.29-.39.43-.16h16.73l.3.07.35.33.13.49v8.85h0Zm-.78-12.25H13.98l-1.16.27c-.53.26-.98.69-1.3,1.23-.32.54-.51,1.19-.51,1.9v8.85l.23,1.32c.23.61.6,1.13,1.07,1.49.47.37,1.05.59,1.66.59h16.73l1.16-.27c.53-.26.98-.69,1.3-1.23.32-.54.51-1.2.51-1.9v-8.85l-.23-1.32c-.23-.61-.6-1.13-1.08-1.49-.47-.37-1.05-.59-1.65-.59h0Z" fill="#14333f" stroke-width="0"/></svg>